<?xml version="1.0" encoding="UTF-8"?>
<svg id="Bold" xmlns="http://www.w3.org/2000/svg" viewBox="0 0 512 512.01">
  <path d="M256.09,124.53c-72.6,0-131.37,58.84-131.37,131.37s58.84,131.37,131.37,131.37,131.37-58.84,131.37-131.37-58.84-131.37-131.37-131.37h0ZM256.09,341.17c-47.13,0-85.27-38.17-85.27-85.27s38.17-85.27,85.27-85.27,85.27,38.17,85.27,85.27c.02,47.1-38.14,85.27-85.27,85.27Z"/>
  <path d="M361.56,1.61C314.46-.59,197.79-.48,150.64,1.61c-41.43,1.94-77.97,11.95-107.43,41.41C-6.03,92.25.26,158.6.26,255.9s-5.55,164.39,42.94,212.89c49.43,49.41,116.74,42.94,212.89,42.94s132.69.06,167.57-13.44c47.42-18.41,83.22-60.8,86.72-136.94,2.22-47.13,2.09-163.78,0-210.92C506.16,60.55,457.92,6.05,361.56,1.61h0ZM436.12,436.21c-32.28,32.28-77.06,29.4-180.65,29.4s-149.44,1.58-180.65-29.72c-35.95-35.78-29.44-93.23-29.44-180.33,0-117.87-12.1-202.75,106.2-208.81,27.18-.96,35.18-1.28,103.59-1.28l.96.64c113.69,0,202.88-11.9,208.23,106.37,1.22,26.99,1.49,35.09,1.49,103.4-.02,105.43,1.98,148.46-29.74,180.33h0Z"/>
  <circle cx="392.67" cy="119.35" r="30.7"/>
</svg>